<mxfile host="app.diagrams.net" agent="agent" version="20.2.8"><diagram name="Admissions Dashboard"><mxGraphModel dx="1280" dy="720" grid="1" gridSize="10" page="1" pageScale="1" pageWidth="1920" pageHeight="1080"><root><mxCell id="0"/><mxCell id="1" parent="0"/><mxCell id="title" value="Admissions Dashboard" style="shape=rectangle;whiteSpace=wrap;html=1;fontSize=18;fontStyle=1;align=center;verticalAlign=top;" vertex="1"><mxGeometry x="20" y="20" width="1880" height="60" as="geometry"/></mxCell><mxCell id="kpis" value="KPIs" style="shape=rectangle;whiteSpace=wrap;html=1;rounded=1;" vertex="1"><mxGeometry x="20" y="100" width="1880" height="100" as="geometry"/></mxCell><mxCell id="funnel" value="Funnel" style="shape=rectangle;whiteSpace=wrap;html=1;" vertex="1"><mxGeometry x="20" y="220" width="600" height="300" as="geometry"/></mxCell><mxCell id="filters" value="Filters" style="shape=rectangle;whiteSpace=wrap;html=1;rounded=1;fillColor=#f5f5f5;" vertex="1"><mxGeometry x="640" y="220" width="1260" height="120" as="geometry"/></mxCell><mxCell id="table" value="Applications Table" style="shape=rectangle;whiteSpace=wrap;html=1;" vertex="1"><mxGeometry x="20" y="540" width="1880" height="520" as="geometry"/></mxCell></root></mxGraphModel></diagram></mxfile>
